<?xml version="1.0" encoding="UTF-8"?>
<svg xmlns="http://www.w3.org/2000/svg" xmlns:xlink="http://www.w3.org/1999/xlink" width="375pt" height="374.999991pt" viewBox="0 0 375 374.999991" version="1.2">
<defs>
<clipPath id="clip1">
  <path d="M 0 0 L 375 0 L 375 364.390625 L 0 364.390625 Z M 0 0 "/>
</clipPath>
<clipPath id="clip2">
  <path d="M 1 25.3125 L 374 25.3125 L 374 350.0625 L 1 350.0625 Z M 1 25.3125 "/>
</clipPath>
</defs>
<g id="surface1">
<g clip-path="url(#clip1)" clip-rule="nonzero">
<path style=" stroke:none;fill-rule:nonzero;fill:rgb(100%,100%,100%);fill-opacity:1;" d="M 0 -27.859375 L 392.25 -27.859375 L 392.25 364.390625 L 0 364.390625 Z M 0 -27.859375 "/>
</g>
<g clip-path="url(#clip2)" clip-rule="nonzero">
<path style=" stroke:none;fill-rule:nonzero;fill:rgb(80.389404%,44.309998%,43.139648%);fill-opacity:1;" d="M 344.746094 54.324219 C 306.078125 15.609375 243.273438 15.609375 204.601562 54.324219 L 187.5 71.445312 L 170.398438 54.324219 C 131.726562 15.609375 68.921875 15.609375 30.253906 54.324219 C -8.417969 93.039062 -8.417969 155.917969 30.253906 194.632812 L 184.175781 348.730469 C 185.03125 349.585938 186.265625 350.0625 187.5 350.0625 C 188.734375 350.0625 189.96875 349.585938 190.824219 348.730469 L 344.746094 194.632812 C 383.417969 155.917969 383.417969 93.039062 344.746094 54.324219 Z M 338.097656 187.972656 L 187.5 338.742188 L 36.902344 187.972656 C 1.9375 152.96875 1.9375 95.988281 36.902344 60.984375 C 53.722656 44.050781 76.335938 34.824219 100.371094 34.824219 C 124.410156 34.824219 146.929688 44.148438 163.839844 60.984375 L 184.175781 81.433594 C 185.980469 83.242188 189.019531 83.242188 190.824219 81.433594 L 211.253906 60.984375 C 246.21875 25.976562 303.132812 25.976562 338.097656 60.984375 C 373.0625 95.988281 373.0625 152.96875 338.097656 187.972656 Z M 247.832031 159.339844 L 215.8125 159.339844 L 215.8125 127.285156 C 215.8125 119.484375 209.449219 113.109375 201.65625 113.109375 L 173.246094 113.109375 C 165.457031 113.109375 159.089844 119.484375 159.089844 127.285156 L 159.089844 159.339844 L 127.070312 159.339844 C 119.28125 159.339844 112.914062 165.714844 112.914062 173.515625 L 112.914062 201.957031 C 112.914062 209.757812 119.28125 216.128906 127.070312 216.128906 L 159.089844 216.128906 L 159.089844 248.1875 C 159.089844 255.984375 165.457031 262.359375 173.246094 262.359375 L 201.65625 262.359375 C 209.449219 262.359375 215.8125 255.984375 215.8125 248.1875 L 215.8125 216.128906 L 247.832031 216.128906 C 255.625 216.128906 261.992188 209.757812 261.992188 201.957031 L 261.992188 173.515625 C 261.992188 165.714844 255.625 159.339844 247.832031 159.339844 Z M 252.585938 201.957031 C 252.585938 204.621094 250.398438 206.710938 247.832031 206.710938 L 211.160156 206.710938 C 208.59375 206.710938 206.503906 208.804688 206.503906 211.375 L 206.503906 248.089844 C 206.503906 250.753906 204.316406 252.847656 201.753906 252.847656 L 173.246094 252.847656 C 170.585938 252.847656 168.496094 250.660156 168.496094 248.089844 L 168.496094 211.375 C 168.496094 208.804688 166.40625 206.710938 163.839844 206.710938 L 127.167969 206.710938 C 124.507812 206.710938 122.414062 204.523438 122.414062 201.957031 L 122.414062 173.515625 C 122.414062 170.851562 124.601562 168.757812 127.167969 168.757812 L 163.839844 168.757812 C 166.40625 168.757812 168.496094 166.664062 168.496094 164.097656 L 168.496094 127.378906 C 168.496094 124.714844 170.683594 122.625 173.246094 122.625 L 201.65625 122.625 C 204.316406 122.625 206.40625 124.8125 206.40625 127.378906 L 206.40625 164.097656 C 206.40625 166.664062 208.496094 168.757812 211.0625 168.757812 L 247.738281 168.757812 C 250.398438 168.757812 252.488281 170.945312 252.488281 173.515625 L 252.488281 201.957031 Z M 304.460938 62.503906 C 302.371094 60.984375 299.425781 61.460938 297.90625 63.550781 C 296.386719 65.644531 296.859375 68.59375 299.046875 70.117188 C 299.425781 70.402344 335.152344 96.558594 323.179688 138.507812 C 322.417969 140.980469 323.9375 143.644531 326.410156 144.3125 C 326.882812 144.40625 327.265625 144.5 327.738281 144.5 C 329.828125 144.5 331.636719 143.167969 332.300781 141.078125 C 345.886719 92.851562 304.839844 62.789062 304.460938 62.503906 Z M 321.847656 154.679688 C 319.566406 153.441406 316.71875 154.203125 315.484375 156.488281 C 313.488281 160.007812 311.207031 163.527344 308.640625 167.046875 C 307.121094 169.136719 307.597656 172.085938 309.6875 173.609375 C 310.542969 174.179688 311.492188 174.464844 312.441406 174.464844 C 313.867188 174.464844 315.292969 173.800781 316.242188 172.5625 C 319 168.757812 321.46875 164.859375 323.652344 161.054688 C 324.890625 158.769531 324.128906 155.917969 321.847656 154.679688 Z M 321.847656 154.679688 "/>
</g>
</g>
</svg>
